<svg xmlns="http://www.w3.org/2000/svg" viewBox="0 0 119.69 40.21"><defs><style>.cls-1{isolation:isolate}.cls-2{opacity:.66;mix-blend-mode:multiply}.cls-3{fill:#008c39}.cls-4{fill:#005f30}.cls-5{fill:#00954f}.cls-6{fill:#ffdc00}.cls-7{fill:#153d89}.cls-8{fill:#fff}</style></defs><title>Ativo 1</title><g class="cls-1"><g id="Camada_2" data-name="Camada 2"><g id="Layer_1" data-name="Layer 1"><path d="M63.79 31.89c0 3.07.11 5.62.21 7.74h-5.72L58 35.71h-.11a9.34 9.34 0 0 1-8.27 4.51c-4.72 0-9-2.81-9-11.24V13.81h6.52v14c0 4.29 1.38 7.05 4.82 7.05a5.5 5.5 0 0 0 5-3.5 5.92 5.92 0 0 0 .37-2V13.81h6.52zM67.68 2h6.52v15.36h.11a9.34 9.34 0 0 1 8.27-4.13c6.31 0 10.81 5.25 10.76 13.09 0 9.28-5.88 13.89-11.72 13.89a8.88 8.88 0 0 1-8.16-4.45h-.11L73 39.63h-5.54c.11-1.75.21-4.61.21-7.26zm6.52 27a7.18 7.18 0 0 0 .16 1.54 6 6 0 0 0 5.78 4.56c4.08 0 6.57-3.29 6.57-8.48 0-4.56-2.17-8.27-6.52-8.27a6.11 6.11 0 0 0-5.78 4.77 7.8 7.8 0 0 0-.21 1.7zm27.99-.45c.16 4.66 3.82 6.68 8 6.68a19.41 19.41 0 0 0 7.16-1.17l1 4.51a24.2 24.2 0 0 1-9 1.64c-8.38 0-13.31-5.2-13.31-13.09 0-7.16 4.35-13.89 12.62-13.89 8.43 0 11.13 6.89 11.13 12.56a16 16 0 0 1-.21 2.76zM113.54 24c.05-2.39-1-6.31-5.35-6.31-4 0-5.73 3.66-6 6.31zM29.65 13.33L14 21.37v18.26h6.6V24.47a6.66 6.66 0 0 1 .26-2.12A5.47 5.47 0 0 1 26 18.53c3.55 0 4.93 2.81 4.93 6.52v14.58h6.52V24.31c-.04-7.31-3.78-10.41-7.8-10.98z"/><path class="cls-2" d="M14 21.37v7.37a47.77 47.77 0 0 1 8-8.36A5.38 5.38 0 0 1 23.92 19a24.71 24.71 0 0 1 9.5-4.18 8.63 8.63 0 0 0-3.76-1.45z"/><path class="cls-3" d="M3.29 12.62L1.14 26.21l36.3-18.29L29.25 0 3.29 12.62z"/><path class="cls-4" d="M2.87 35.61a1 1 0 0 0-.6-.87v-7.33l36.15-18.6L29.25 0 3.3 12.62 1.14 26.33l.14.46v8a1 1 0 0 0-.56.84.92.92 0 0 0 .31.69L0 39.57h3.54l-1-3.29a.92.92 0 0 0 .33-.67z"/><path class="cls-5" d="M29.25 0L3.29 12.62 1.14 26.21l36.3-18.29L29.25 0z"/><path class="cls-6" d="M14.56 7.88L2.99 17.72l15.48-1.12L31.91 4.17 14.56 7.88z"/><path class="cls-7" d="M24.4 8.07c-.34-.81-1.95-1-4.12-.51a6.68 6.68 0 0 0-3.94 2.79c-1.25 1.7-1.62 3.46-1 4.37a1.76 1.76 0 0 1-.85-.15c-1.24-.6-1-2.73.45-4.76.16-.22.33-.42.5-.62-4.17 1.89-7.07 4.44-6.52 5.75s4.49.87 8.77-1S25 9.4 24.4 8.07z"/><path class="cls-8" d="M14.46 14.58a1.76 1.76 0 0 0 .85.15c-.59-.91-.22-2.67 1-4.37a6.68 6.68 0 0 1 3.94-2.79 23.33 23.33 0 0 0-4.62 1.53l-.21.1c-.17.2-.34.4-.5.62-1.5 2.03-1.7 4.18-.46 4.76z"/></g></g></g></svg>